<svg version="1.0" id="Layer_1" xmlns="http://www.w3.org/2000/svg" width="800" height="800" viewBox="0 0 64 64" enable-background="new 0 0 64 64"><g><g><g><path fill="#506C7F" d="M50 2c-.553.0-1 .447-1 1v1 2 4c0 .553.447 1 1 1s1-.447 1-1V6 4 3C51 2.447 50.553 2 50 2z"/><path fill="#506C7F" d="M14 2c-.553.0-1 .447-1 1v1 2 4c0 .553.447 1 1 1s1-.447 1-1V6 4 3C15 2.447 14.553 2 14 2z"/></g><path fill="#F9EBB2" d="M62 60c0 1.104-.896 2-2 2H4c-1.104.0-2-.896-2-2V17h60V60z"/><path fill="#F76D57" d="M62 15H2V8c0-1.104.896-2 2-2h7v4c0 1.657 1.343 3 3 3s3-1.343 3-3V6h30v4c0 1.657 1.343 3 3 3s3-1.343 3-3V6h7c1.104.0 2 .896 2 2v7z"/><g><path fill="#394240" d="M11 54h6c.553.0 1-.447 1-1v-5c0-.553-.447-1-1-1h-6c-.553.0-1 .447-1 1v5C10 53.553 10.447 54 11 54zm1-5h4v3h-4V49z"/><path fill="#394240" d="M23 54h6c.553.0 1-.447 1-1v-5c0-.553-.447-1-1-1h-6c-.553.0-1 .447-1 1v5C22 53.553 22.447 54 23 54zm1-5h4v3h-4V49z"/><path fill="#394240" d="M35 54h6c.553.0 1-.447 1-1v-5c0-.553-.447-1-1-1h-6c-.553.0-1 .447-1 1v5C34 53.553 34.447 54 35 54zm1-5h4v3h-4V49z"/><path fill="#394240" d="M11 43h6c.553.0 1-.447 1-1v-5c0-.553-.447-1-1-1h-6c-.553.0-1 .447-1 1v5C10 42.553 10.447 43 11 43zm1-5h4v3h-4V38z"/><path fill="#394240" d="M23 43h6c.553.0 1-.447 1-1v-5c0-.553-.447-1-1-1h-6c-.553.0-1 .447-1 1v5C22 42.553 22.447 43 23 43zm1-5h4v3h-4V38z"/><path fill="#394240" d="M35 43h6c.553.0 1-.447 1-1v-5c0-.553-.447-1-1-1h-6c-.553.0-1 .447-1 1v5C34 42.553 34.447 43 35 43zm1-5h4v3h-4V38z"/><path fill="#394240" d="M47 43h6c.553.0 1-.447 1-1v-5c0-.553-.447-1-1-1h-6c-.553.0-1 .447-1 1v5C46 42.553 46.447 43 47 43zm1-5h4v3h-4V38z"/><path fill="#394240" d="M11 32h6c.553.0 1-.447 1-1v-5c0-.553-.447-1-1-1h-6c-.553.0-1 .447-1 1v5C10 31.553 10.447 32 11 32zm1-5h4v3h-4V27z"/><path fill="#394240" d="M23 32h6c.553.0 1-.447 1-1v-5c0-.553-.447-1-1-1h-6c-.553.0-1 .447-1 1v5C22 31.553 22.447 32 23 32zm1-5h4v3h-4V27z"/><path fill="#394240" d="M35 32h6c.553.0 1-.447 1-1v-5c0-.553-.447-1-1-1h-6c-.553.0-1 .447-1 1v5C34 31.553 34.447 32 35 32zm1-5h4v3h-4V27z"/><path fill="#394240" d="M47 32h6c.553.0 1-.447 1-1v-5c0-.553-.447-1-1-1h-6c-.553.0-1 .447-1 1v5C46 31.553 46.447 32 47 32zm1-5h4v3h-4V27z"/><path fill="#394240" d="M60 4h-7V3c0-1.657-1.343-3-3-3s-3 1.343-3 3v1H17V3c0-1.657-1.343-3-3-3s-3 1.343-3 3v1H4C1.789 4 0 5.789.0 8v52c0 2.211 1.789 4 4 4h56c2.211.0 4-1.789 4-4V8c0-2.211-1.789-4-4-4zM49 3c0-.553.447-1 1-1s1 .447 1 1v7c0 .553-.447 1-1 1s-1-.447-1-1V3zM13 3c0-.553.447-1 1-1s1 .447 1 1v7c0 .553-.447 1-1 1s-1-.447-1-1V3zM62 60c0 1.104-.896 2-2 2H4c-1.104.0-2-.896-2-2V17h60V60zm0-45H2V8c0-1.104.896-2 2-2h7v4c0 1.657 1.343 3 3 3s3-1.343 3-3V6h30v4c0 1.657 1.343 3 3 3s3-1.343 3-3V6h7c1.104.0 2 .896 2 2v7z"/></g></g><g><rect x="12" y="27" fill="#B4CCB9" width="4" height="3"/><rect x="24" y="27" fill="#B4CCB9" width="4" height="3"/><rect x="36" y="27" fill="#B4CCB9" width="4" height="3"/><rect x="48" y="27" fill="#B4CCB9" width="4" height="3"/><rect x="12" y="38" fill="#B4CCB9" width="4" height="3"/><rect x="24" y="38" fill="#B4CCB9" width="4" height="3"/><rect x="36" y="38" fill="#B4CCB9" width="4" height="3"/><rect x="48" y="38" fill="#B4CCB9" width="4" height="3"/><rect x="12" y="49" fill="#B4CCB9" width="4" height="3"/><rect x="24" y="49" fill="#B4CCB9" width="4" height="3"/><rect x="36" y="49" fill="#B4CCB9" width="4" height="3"/></g></g></svg>